<svg width="17" height="18" viewBox="0 0 17 18" fill="none" xmlns="http://www.w3.org/2000/svg">
<path d="M5.8335 16.4443V10.2776C5.8335 9.81088 5.8335 9.57753 5.92432 9.39927C6.00422 9.24247 6.1317 9.11498 6.2885 9.03509C6.46676 8.94426 6.70012 8.94426 7.16683 8.94426H9.50016C9.96687 8.94426 10.2002 8.94426 10.3785 9.03509C10.5353 9.11498 10.6628 9.24247 10.7427 9.39927C10.8335 9.57753 10.8335 9.81088 10.8335 10.2776V16.4443M7.51491 1.24761L1.86299 5.64355C1.48518 5.9374 1.29628 6.08432 1.16019 6.26832C1.03963 6.43131 0.949831 6.61493 0.895186 6.81015C0.833496 7.03054 0.833496 7.26986 0.833496 7.74848V13.7776C0.833496 14.711 0.833496 15.1777 1.01515 15.5342C1.17494 15.8478 1.42991 16.1028 1.74351 16.2626C2.10003 16.4443 2.56674 16.4443 3.50016 16.4443H13.1668C14.1003 16.4443 14.567 16.4443 14.9235 16.2626C15.2371 16.1028 15.4921 15.8478 15.6518 15.5342C15.8335 15.1777 15.8335 14.711 15.8335 13.7776V7.74848C15.8335 7.26986 15.8335 7.03054 15.7718 6.81015C15.7172 6.61493 15.6274 6.43131 15.5068 6.26832C15.3707 6.08432 15.1818 5.9374 14.804 5.64355L9.15208 1.24761C8.85931 1.0199 8.71293 0.906041 8.55128 0.862276C8.40866 0.823659 8.25833 0.823659 8.11571 0.862276C7.95407 0.906041 7.80768 1.0199 7.51491 1.24761Z" stroke="#344054" stroke-width="1.66667" stroke-linecap="round" stroke-linejoin="round"/>
</svg>
